<svg xmlns="http://www.w3.org/2000/svg" viewBox="0 0 32 32">
  <defs>
    <linearGradient id="rk" x1="0" y1="0" x2="0" y2="1">
      <stop offset="0" stop-color="#34A3DB"/>
      <stop offset=".5" stop-color="#0A80BF"/>
      <stop offset="1" stop-color="#015B8C"/>
    </linearGradient>
  </defs>
  <rect width="32" height="32" rx="8" fill="url(#rk)"/>
  <!-- Coarse dot-matrix R (favicon cut), cream on blue -->
  <g fill="#F6F2E9">
    <rect x="9" y="4" width="4" height="4" rx="1"/>
    <rect x="14" y="4" width="4" height="4" rx="1"/>
    <rect x="19" y="4" width="4" height="4" rx="1"/>
    <rect x="9" y="9" width="4" height="4" rx="1"/>
    <rect x="19" y="9" width="4" height="4" rx="1"/>
    <rect x="9" y="14" width="4" height="4" rx="1"/>
    <rect x="14" y="14" width="4" height="4" rx="1"/>
    <rect x="19" y="14" width="4" height="4" rx="1"/>
    <rect x="9" y="19" width="4" height="4" rx="1"/>
    <rect x="14" y="19" width="4" height="4" rx="1"/>
    <rect x="9" y="24" width="4" height="4" rx="1"/>
    <rect x="19" y="24" width="4" height="4" rx="1"/>
  </g>
</svg>
